<svg xmlns="http://www.w3.org/2000/svg" viewBox="0 0 119 46.92"><defs><style>.cls-1{fill:#0058af;}.cls-2{fill:#fff;}</style></defs><title>badge</title><g id="Layer_2" data-name="Layer 2"><g id="Layer_4" data-name="Layer 4"><path class="cls-1" d="M19.09,46.92h-.4a5.28,5.28,0,0,1-2.33-.74l-1.85-1.09A47.39,47.39,0,0,1,5,38.45,15.23,15.23,0,0,1,0,27.22V10.1A5.24,5.24,0,0,1,3.53,5.15L17.32.3A5.35,5.35,0,0,1,19.09,0a5.29,5.29,0,0,1,1.76.3l13.8,4.85a5.2,5.2,0,0,1,1.86,1.12l1.35,1.27h76.46A4.67,4.67,0,0,1,119,12.21v22.5a4.68,4.68,0,0,1-4.68,4.68H32.19l-1.28,1a61.45,61.45,0,0,1-7.24,4.69l-1.86,1.09A5.33,5.33,0,0,1,19.09,46.92Z"/><path class="cls-2" d="M36.68,19.14v-9a3.77,3.77,0,0,0-2.53-3.54L20.36,1.71a3.88,3.88,0,0,0-2.54,0L4,6.56A3.75,3.75,0,0,0,1.5,10.1V27.22h0c0,8.57,7.63,13,13.76,16.57.64.37,1.27.73,1.87,1.1a3.9,3.9,0,0,0,1.69.53h.27A3.82,3.82,0,0,0,21,44.89c.61-.37,1.24-.73,1.88-1.1C28,40.85,34.05,37.3,36,31.34a11.32,11.32,0,0,0,4.38-8.57v-2.7ZM22.36,42.82c-.65.38-1.28.74-1.89,1.11a2.68,2.68,0,0,1-1.41.37V41.49L5.89,31a8.84,8.84,0,0,1-3.28-6.51V10.1A2.64,2.64,0,0,1,4.4,7.61L18.19,2.77a2.55,2.55,0,0,1,.9-.16,2.83,2.83,0,0,1,.9.15L33.78,7.61a2.63,2.63,0,0,1,1.78,2.49v8.77l-2.43-.61a2.14,2.14,0,0,1-1.24-.84l-2.28-3.28a7.73,7.73,0,0,0-6.32-3.3H13.61a4.59,4.59,0,0,0-3.77,2L5.07,19.7A7.74,7.74,0,0,0,6.58,30.11l11.25,9a4.63,4.63,0,0,0,2.87,1,4.37,4.37,0,0,0,.72-.06,4.6,4.6,0,0,0,3.12-2l1.67-2.56a4.76,4.76,0,0,0,.68-1.74h0a3.29,3.29,0,0,0,0-.7,3.52,3.52,0,0,0-.44-1.3L23.16,26a.56.56,0,1,1,1-.56l3.29,5.7A4.56,4.56,0,0,1,28,32.9a4.72,4.72,0,0,1,0,.84H29.1l.65,0a11,11,0,0,0,4.66-1.33C32.17,37.11,27,40.11,22.36,42.82ZM25.1,16.41a1.34,1.34,0,1,1-1.34,1.34A1.34,1.34,0,0,1,25.1,16.41Zm4.58,16.2h-.17c4.65-6.53,4.62-6.91-4.4-20.38a6.57,6.57,0,0,1,3.58,2.55L31,18.06a3.24,3.24,0,0,0,1.88,1.29l4.73,1.17a2,2,0,0,0-.06.43,1.8,1.8,0,0,0,1.75,1.79h0A10.24,10.24,0,0,1,29.68,32.61Z"/><path class="cls-2" d="M49,16.75l-2.16,5h-.91l-2.18-5h1l1.66,3.84,1.67-3.84Z"/><path class="cls-2" d="M53.31,21v.78H49.58v-5h3.63v.78h-2.7v1.29h2.4v.76h-2.4V21Z"/><path class="cls-2" d="M57.67,21.73l-1-1.46H55.34v1.45h-.93v-5h2.05a2.65,2.65,0,0,1,1.13.22,1.58,1.58,0,0,1,.73.61,1.85,1.85,0,0,1,0,1.91,1.66,1.66,0,0,1-.79.6l1.14,1.64Zm-.33-3.94a1.44,1.44,0,0,0-.92-.26H55.34v2h1.08a1.44,1.44,0,0,0,.92-.26.94.94,0,0,0,.31-.74A.91.91,0,0,0,57.34,17.79Z"/><path class="cls-2" d="M59.68,16.75h.93v5h-.93Z"/><path class="cls-2" d="M62.94,17.53V19h2.41v.78H62.94v1.91H62v-5h3.63v.78Z"/><path class="cls-2" d="M66.62,16.75h.92v5h-.92Z"/><path class="cls-2" d="M72.69,21v.78H69v-5h3.63v.78H69.88v1.29h2.4v.76h-2.4V21Z"/><path class="cls-2" d="M73.79,16.75H76a3.18,3.18,0,0,1,1.41.31,2.34,2.34,0,0,1,1,.88,2.66,2.66,0,0,1,0,2.6,2.34,2.34,0,0,1-1,.88,3.18,3.18,0,0,1-1.41.31H73.79ZM75.92,21a2.13,2.13,0,0,0,1-.21,1.54,1.54,0,0,0,.64-.6,2,2,0,0,0,0-1.8,1.54,1.54,0,0,0-.64-.6,2.13,2.13,0,0,0-1-.21H74.71V21Z"/><path class="cls-2" d="M85.94,19.59a1.21,1.21,0,0,1,.25.79,1.17,1.17,0,0,1-.5,1,2.54,2.54,0,0,1-1.45.35H81.76v-5H84.1a2.26,2.26,0,0,1,1.35.35,1.1,1.1,0,0,1,.48.95,1.29,1.29,0,0,1-.17.65,1.11,1.11,0,0,1-.47.44A1.28,1.28,0,0,1,85.94,19.59Zm-3.25-2.11v1.37H84a1.37,1.37,0,0,0,.74-.17.64.64,0,0,0,0-1,1.37,1.37,0,0,0-.74-.17Zm2.56,2.8c0-.47-.35-.71-1.07-.71H82.69V21h1.49C84.9,21,85.25,20.76,85.25,20.28Z"/><path class="cls-2" d="M89.28,20v1.76h-.92V20l-2-3.24h1l1.46,2.43,1.47-2.43h.91Z"/><path class="cls-2" d="M48.61,28.12a1.21,1.21,0,0,1,.25.79,1.17,1.17,0,0,1-.5,1,2.54,2.54,0,0,1-1.45.35H44.44v-5h2.33a2.26,2.26,0,0,1,1.35.35,1.1,1.1,0,0,1,.48.95,1.29,1.29,0,0,1-.17.65,1.11,1.11,0,0,1-.47.44A1.28,1.28,0,0,1,48.61,28.12ZM45.36,26v1.37h1.31a1.28,1.28,0,0,0,.74-.18.56.56,0,0,0,.26-.5.6.6,0,0,0-.26-.52,1.29,1.29,0,0,0-.74-.17Zm2.57,2.8c0-.47-.36-.71-1.08-.71H45.36v1.43h1.49Q47.93,29.53,47.93,28.81Z"/><path class="cls-2" d="M53.65,29.48v.78H49.92v-5h3.63v.78H50.84v1.29h2.4v.76h-2.4v1.37Z"/><path class="cls-2" d="M58,29.11H55.49L55,30.26H54l2.24-5h.91l2.25,5h-1Zm-.31-.73-.94-2.17-.93,2.17Z"/><path class="cls-2" d="M63.47,27.71h.87v2a2.59,2.59,0,0,1-.89.46,3.39,3.39,0,0,1-1.05.17A2.87,2.87,0,0,1,61,30a2.47,2.47,0,0,1-1-.92,2.4,2.4,0,0,1-.35-1.31A2.46,2.46,0,0,1,61,25.54a2.87,2.87,0,0,1,1.38-.33,3,3,0,0,1,1.14.21,2.19,2.19,0,0,1,.86.6l-.58.57a2,2,0,0,0-2.31-.35,1.59,1.59,0,0,0-.64.62,1.84,1.84,0,0,0-.23.91,1.76,1.76,0,0,0,.23.89,1.62,1.62,0,0,0,.64.63,1.89,1.89,0,0,0,.93.23,2,2,0,0,0,1-.26Z"/><path class="cls-2" d="M65.63,25.28h.92v4.2h2.61v.78H65.63Z"/><path class="cls-2" d="M73.69,29.48v.78H70v-5h3.63v.78H70.88v1.29h2.41v.76H70.88v1.37Z"/><path class="cls-2" d="M77.26,30.16a2.12,2.12,0,0,1-.85-.43l.32-.72a2.42,2.42,0,0,0,.75.4,2.73,2.73,0,0,0,.89.15,1.55,1.55,0,0,0,.83-.18.54.54,0,0,0,.27-.47.45.45,0,0,0-.15-.35,1.12,1.12,0,0,0-.39-.21,4.88,4.88,0,0,0-.64-.18,7.17,7.17,0,0,1-.92-.27,1.45,1.45,0,0,1-.61-.43,1.17,1.17,0,0,1-.25-.77,1.3,1.3,0,0,1,.23-.75,1.46,1.46,0,0,1,.67-.54,2.79,2.79,0,0,1,1.11-.2,3.8,3.8,0,0,1,.89.11,2.53,2.53,0,0,1,.76.33l-.29.72a2.54,2.54,0,0,0-.68-.29,2.45,2.45,0,0,0-.69-.1,1.43,1.43,0,0,0-.81.18.58.58,0,0,0-.27.49.44.44,0,0,0,.15.35,1,1,0,0,0,.39.21,4.88,4.88,0,0,0,.64.18,8.05,8.05,0,0,1,.91.27,1.52,1.52,0,0,1,.61.42,1.12,1.12,0,0,1,.25.77,1.43,1.43,0,0,1-.22.75,1.54,1.54,0,0,1-.68.53,2.86,2.86,0,0,1-1.11.2A3.68,3.68,0,0,1,77.26,30.16Z"/><path class="cls-2" d="M85.1,29.48v.78H81.37v-5H85v.78H82.29v1.29h2.4v.76h-2.4v1.37Z"/><path class="cls-2" d="M87.12,30a2.51,2.51,0,0,1-1.3-2.23,2.55,2.55,0,0,1,.35-1.32,2.48,2.48,0,0,1,1-.91,2.79,2.79,0,0,1,1.36-.33,2.9,2.9,0,0,1,1.12.21,2.4,2.4,0,0,1,.85.62l-.6.56A1.76,1.76,0,0,0,88.53,26a1.94,1.94,0,0,0-.91.22,1.55,1.55,0,0,0-.64.63,1.88,1.88,0,0,0,0,1.8,1.53,1.53,0,0,0,.64.62,1.84,1.84,0,0,0,.91.23,1.74,1.74,0,0,0,1.33-.59l.6.57a2.35,2.35,0,0,1-.86.62,2.9,2.9,0,0,1-1.12.21A2.82,2.82,0,0,1,87.12,30Z"/><path class="cls-2" d="M91.92,29.75a2.24,2.24,0,0,1-.58-1.66V25.28h.92v2.77c0,1,.43,1.47,1.27,1.47s1.26-.49,1.26-1.47V25.28h.91v2.81a2.24,2.24,0,0,1-.58,1.66,2.5,2.5,0,0,1-3.2,0Z"/><path class="cls-2" d="M100.32,30.26l-1-1.46H98v1.45h-.93v-5h2a2.73,2.73,0,0,1,1.12.21,1.63,1.63,0,0,1,1,1.56,1.63,1.63,0,0,1-.28,1,1.59,1.59,0,0,1-.78.6l1.14,1.64ZM100,26.32a1.41,1.41,0,0,0-.91-.26H98v2h1.08a1.41,1.41,0,0,0,.91-.26.92.92,0,0,0,.32-.74A.88.88,0,0,0,100,26.32Z"/><path class="cls-2" d="M102.33,25.28h.92v5h-.92Z"/><path class="cls-2" d="M105.68,26.06H104v-.78h4.22v.78H106.6v4.2h-.92Z"/><path class="cls-2" d="M111.09,28.5v1.76h-.92V28.52l-2-3.24h1l1.46,2.43,1.47-2.43H113Z"/></g></g></svg>